<svg width="107" height="83" viewBox="0 0 107 83" fill="none" xmlns="http://www.w3.org/2000/svg">
<path d="M103.4 67.6597C103.083 68.0938 102.619 68.3996 102.095 68.5211L43.5575 82.7366V19.3235L105.398 10.4189L103.746 66.0028C103.853 66.579 103.728 67.1739 103.4 67.6597Z" fill="#B9C2E4"/>
<path d="M41.4105 82.7366L4.08494 64.483C3.66066 64.1314 3.32042 63.6899 3.089 63.1906C2.85757 62.6914 2.74079 62.147 2.74716 61.5971L1.37085 6.49603L41.4105 19.3235V82.7366Z" fill="#A4A9D5"/>
<path d="M44.7742 82.3087C44.541 82.4501 44.296 82.5713 44.042 82.6708C43.7722 82.7751 42.1647 83.3841 41.1682 82.6215C41.0526 82.5306 40.949 82.4255 40.8599 82.3087C40.8342 61.2442 40.8049 40.1814 40.7719 19.1205C41.0639 19.258 41.3731 19.3558 41.6912 19.4113C42.3133 19.5003 42.9466 19.4705 43.5575 19.3235C43.929 19.2578 44.2966 19.1717 44.6586 19.0657C44.6842 40.1449 44.7228 61.2259 44.7742 82.3087Z" fill="#B2B8E7"/>
<path d="M43.1886 23.378L0.748665 10.6383C0.545779 10.5624 0.367065 10.4335 0.23117 10.2653C0.134281 10.1333 0.0657012 9.98287 0.029709 9.82335C-0.0062832 9.66382 -0.00891447 9.49862 0.0219723 9.33804V4.72388L43.062 17.2551L43.1886 23.378Z" fill="#B2B8E7"/>
<path d="M106.835 13.0524C106.714 13.2224 106.554 13.361 106.368 13.4565C106.182 13.552 105.976 13.6016 105.767 13.601L43.1886 23.378L43.062 17.2496L106.983 7.37384V12.2239C107.038 12.5089 106.985 12.8038 106.835 13.0524Z" fill="#BBC9E0"/>
<path d="M106.983 7.41776L43.062 17.2935L0.0219727 4.72388L57.3867 -0.0164795L106.983 7.41776Z" fill="#C4D0E8"/>
</svg>
