<svg width="134" height="116" viewBox="0 0 134 116" fill="none" xmlns="http://www.w3.org/2000/svg">
<g clip-path="url(#clip0_423_992)">
<path d="M95.0765 31.9126L95.0699 37.1968C96.529 37.3805 97.9908 37.5602 99.4554 37.7359L89.943 46.8101L84.5624 39.2014C88.0594 36.7641 91.5641 34.3345 95.0765 31.9126Z" fill="#ADADAD"/>
<path d="M98.2036 32.1921C98.7216 31.8652 99.3003 31.6463 99.9049 31.5486C100.509 31.451 101.127 31.4765 101.722 31.6238L120.253 17.5969L120.137 16.4143C113.887 19.7946 107.636 23.1758 101.384 26.558C98.2163 28.2707 95.052 29.9827 91.891 31.6942L74.5092 44.3838C73.8504 46.3502 73.9554 48.4916 74.8031 50.3825C75.2579 51.3008 75.891 52.1192 76.6655 52.7901C78.0437 53.9702 79.7652 54.676 81.5762 54.8037L98.7299 41.9566C101.285 39.3624 103.835 36.7675 106.382 34.172C111.523 28.9441 116.663 23.7158 121.8 18.4872L120.516 18.0162L102.093 32.0946C101.931 33.3533 101.305 34.5069 100.338 35.3299C99.5677 35.9602 98.6268 36.3463 97.6361 36.4383C97.8368 36.6328 97.9705 36.8861 98.0178 37.1616C98.0651 37.4371 98.0236 37.7207 97.8993 37.9713C97.7884 38.159 97.6348 38.3179 97.4509 38.4351C97.267 38.5524 97.0581 38.6246 96.8411 38.6458C97.0371 38.8914 97.13 39.2035 97.1002 39.5165C97.0705 39.8294 96.9204 40.1188 96.6817 40.3235C96.4767 40.4729 96.2296 40.5533 95.9761 40.5531C95.7226 40.5529 95.4758 40.4721 95.2714 40.3224C95.3584 40.4455 95.4193 40.5852 95.4504 40.7328C95.4815 40.8804 95.482 41.0328 95.4521 41.1807C95.4221 41.3286 95.3622 41.4688 95.2761 41.5928C95.19 41.7168 95.0794 41.8219 94.9513 41.9017C94.7387 41.991 94.503 42.0094 94.2793 41.9541C94.0556 41.8988 93.8559 41.7728 93.7097 41.5948C93.8214 41.8653 93.8335 42.1667 93.7438 42.4455C93.6541 42.7243 93.4684 42.9623 93.2197 43.1172C92.7214 43.3303 91.8868 42.9655 91.6758 42.0857C91.6649 42.3655 91.5522 42.6319 91.3588 42.8347C91.1654 43.0375 90.9046 43.1628 90.6255 43.187C90.3464 43.2112 90.0682 43.1326 89.8432 42.9661C89.6181 42.7995 89.4618 42.5565 89.4035 42.2827L88.481 42.9763L87.3725 41.5021L88.2285 40.8583C88.0016 40.7002 87.8372 40.4676 87.7638 40.2009C87.6905 39.9342 87.7128 39.6501 87.8269 39.3979C87.941 39.1456 88.1397 38.9412 88.3886 38.8198C88.6375 38.6985 88.9209 38.668 89.1897 38.7335C88.9524 38.594 88.7727 38.3744 88.6828 38.1141C88.593 37.8539 88.5989 37.57 88.6996 37.3135C88.7751 37.1686 88.88 37.0409 89.0075 36.9386C89.1351 36.8363 89.2825 36.7617 89.4404 36.7195C89.5983 36.6773 89.7632 36.6684 89.9247 36.6935C90.0861 36.7185 90.2406 36.7768 90.3781 36.8648C90.2566 36.6574 90.2066 36.4158 90.2358 36.177C90.2649 35.9383 90.3717 35.7156 90.5397 35.5433C90.7125 35.8046 90.9787 35.9902 91.2838 36.0621C91.589 36.134 91.9102 36.0868 92.1821 35.9302C92.4539 35.7736 92.6559 35.5194 92.7469 35.2193C92.8379 34.9191 92.8111 34.5957 92.6718 34.315C92.9458 34.2409 93.2376 34.2738 93.488 34.407C93.7384 34.5402 93.9285 34.7638 94.0199 35.0322C94.0822 34.8207 94.1941 34.6271 94.3463 34.4674C94.4986 34.3078 94.6867 34.1868 94.8951 34.1144C95.1767 34.0412 95.4742 34.0606 95.7437 34.1698C96.0131 34.279 96.24 34.4722 96.3908 34.7207C96.6761 33.6899 97.3186 32.7936 98.2036 32.1921Z" fill="#C2C1C1"/>
<path d="M67.5853 59.3354C70.0618 56.6276 72.8061 54.1774 75.7762 52.0222C76.9662 52.286 78.1329 52.6455 79.2648 53.0972C80.6219 53.6418 81.922 54.3184 83.1464 55.1173L81.4428 63.3912C82.0382 63.8093 82.5795 64.2996 83.0544 64.8507C83.9356 65.8613 84.8759 66.9428 84.6811 68.2432C84.57 68.9787 84.0547 70.0297 83.1504 70.3174C81.5134 70.8444 80.334 68.3157 77.8889 68.106C76.9022 68.0229 75.4764 68.2931 73.6261 69.9729C71.0184 73.6647 68.7731 76.6628 67.1547 78.751C62.223 85.1134 58.4717 89.896 52.6551 95.2045C49.8464 97.7608 47.5365 99.5439 46.1971 100.574C45.0606 101.429 44.0716 102.172 33.7665 108.687C30.33 110.861 28.5679 111.944 26.336 111.811C24.3922 111.691 21.6475 110.761 21.0029 108.828C20.7162 107.97 20.6865 106.441 25.7561 100.638C28.0885 97.9587 30.5848 95.4264 33.2306 93.0558C33.5262 92.7807 33.8942 92.5957 34.2912 92.5225C34.6882 92.4493 35.0978 92.4911 35.4717 92.6428C35.8455 92.7945 36.1681 93.0499 36.4014 93.3789C36.6348 93.7079 36.7691 94.0968 36.7887 94.4998C40.1197 92.621 43.2341 90.3817 46.0757 87.8222C50.5539 83.7912 53.2122 79.9748 57.7505 73.3889C63.2395 65.4707 63.6434 63.6265 67.5853 59.3354Z" fill="#A4A9D5"/>
<path d="M65.745 56.8881C69.035 55.2625 72.1509 53.3061 75.0446 51.0491C75.1214 49.8326 75.0999 48.612 74.9802 47.3992C74.8337 45.9443 74.5446 44.5075 74.117 43.1094L65.6981 42.453C65.4607 41.7637 65.1391 41.1063 64.7406 40.4959C64.0144 39.3688 63.2364 38.1652 61.933 37.9913C61.1955 37.8939 60.0429 38.0972 59.5155 38.8861C58.5547 40.3124 60.6567 42.1475 60.1793 44.5547C59.9852 45.5257 59.3299 46.8205 57.2024 48.1318C52.9319 49.6121 49.4311 50.9406 46.9757 51.9157C39.4916 54.8837 33.8584 57.1637 27.1411 61.2744C23.9056 63.2631 21.5514 64.9872 20.1897 65.988C19.0532 66.8426 18.0643 67.5862 8.94541 75.678C5.90239 78.3759 4.37306 79.7682 3.88447 81.953C3.4566 83.8499 3.59152 86.7487 5.26936 87.9045C6.01085 88.4143 7.47224 88.8675 14.4569 85.6116C17.6764 84.1106 20.8018 82.4155 23.816 80.5356C24.1617 80.3269 24.4408 80.0241 24.6207 79.6627C24.8005 79.3013 24.8736 78.8962 24.8314 78.4949C24.7892 78.0937 24.6334 77.7129 24.3823 77.3973C24.1312 77.0816 23.7952 76.8442 23.4137 76.7128C26.1433 74.0343 29.1592 71.6639 32.4069 69.6445C37.5226 66.4612 41.9269 64.9668 49.5138 62.4351C58.6445 59.3599 60.5284 59.4838 65.745 56.8881Z" fill="#A4A9D5"/>
<path d="M74.969 47.3845L74.1058 43.0947L63.6959 42.118C63.422 41.8737 63.1724 41.6035 62.9505 41.3111C62.1551 40.2533 62.2792 39.5888 61.7002 39.0953C61.1212 38.6018 59.9775 38.4175 59.4987 38.864C58.6133 39.6914 60.6758 41.9657 60.1626 44.5326C59.9685 45.5036 59.3132 46.7984 57.1857 48.1097C52.9152 49.59 49.4144 50.9185 46.959 51.8936C39.4748 54.8616 33.8417 57.1416 27.1244 61.2523C23.8889 63.241 21.5346 64.9651 20.173 65.9659C20.0033 66.0935 19.8409 66.2156 19.6527 66.3571C14.3937 70.3868 13.5022 71.9283 8.92868 75.6559C6.65853 77.5072 5.15016 78.4972 4.26659 80.7483C3.98501 81.4411 3.79318 82.1671 3.69582 82.9084C24.4243 65.7725 48.8037 53.6144 74.9579 47.3697L74.969 47.3845Z" fill="#B9C2E4"/>
<path d="M67.5852 59.3353C70.0617 56.6276 72.8061 54.1774 75.7761 52.0221L79.2648 53.0972C76.429 56.5162 72.1629 61.7204 67.1039 68.1902C56.0638 82.2615 53.9253 86.1775 49.0048 91.3949C43.7357 96.9553 35.2281 104.062 21.4464 109.648C21.2537 109.402 21.1037 109.124 21.0028 108.828C20.3212 106.808 22.3846 104.904 25.756 100.638C27.9388 97.824 30.4479 95.2788 33.2305 93.0558C33.5261 92.7807 33.8941 92.5956 34.2911 92.5224C34.6882 92.4493 35.0977 92.491 35.4716 92.6427C35.8454 92.7945 36.168 93.0499 36.4014 93.3788C36.6347 93.7078 36.7691 94.0967 36.7887 94.4998C40.1196 92.621 43.234 90.3816 46.0756 87.8221C50.5538 83.7912 53.2121 79.9748 57.7505 73.3888C63.2394 65.4707 63.6434 63.6264 67.5852 59.3353Z" fill="#B9C2E4"/>
</g>
<defs>
<clipPath id="clip0_423_992">
<rect width="43.3333" height="135" fill="white" transform="translate(107.898) rotate(53.0583)"/>
</clipPath>
</defs>
</svg>
