<svg width="253" height="183" viewBox="0 0 253 183" fill="none" xmlns="http://www.w3.org/2000/svg">
<g clip-path="url(#clip0_407_2778)">
<path d="M49.9919 33.6478C50.1302 32.8654 50.2717 32.0643 50.6147 31.3181L49.8452 33.7179C50.4722 31.8526 51.3159 30.0674 52.3592 28.3991L51.0334 30.47C52.1083 28.8456 53.3708 27.3536 54.7946 26.0248L53.0133 27.631C54.3501 26.4419 55.8205 25.4124 57.395 24.5632L55.2766 25.6873C56.345 25.1213 57.4733 24.6764 58.6403 24.3606L56.2602 24.9006C57.0713 24.7353 57.8967 24.6495 58.7244 24.6444L56.1892 24.5423C57.1178 24.5906 58.0369 24.753 58.9258 25.0258L56.5091 24.253C57.3991 24.569 58.2533 24.9776 59.0582 25.4718L56.9921 24.127C58.0615 24.8209 59.0446 25.6395 59.9209 26.5656L58.316 24.7836C59.2903 25.8929 60.1248 27.1178 60.8008 28.4307L59.6778 26.3113C61.1024 29.422 62.1553 32.6902 62.8145 36.048L62.26 33.6448L62.3825 34.1467C62.7015 36.5834 63.8679 38.8298 65.6769 40.4918C67.5871 42.1155 70.0638 42.9134 72.5622 42.7101C75.0607 42.5067 77.3764 41.3187 78.9999 39.4074C79.8348 38.4536 80.4619 37.3362 80.8409 36.1264C81.22 34.9166 81.3427 33.6411 81.2013 32.3813C79.8617 26.3816 78.5516 20.5407 74.9928 15.4744C72.9833 12.4849 70.2677 10.0377 67.0866 8.34972C63.9055 6.66172 60.3571 5.78503 56.756 5.79737C50.1532 5.89852 44.0573 10.0849 39.605 14.6386C35.4827 18.9858 32.6685 24.4074 31.4848 30.2815C31.0483 32.7517 31.6104 35.2942 33.0474 37.3494C34.4844 39.4046 36.6786 40.8042 39.1474 41.2405C41.6103 41.6312 44.1287 41.0501 46.1721 39.6194C48.2155 38.1887 49.6244 36.0203 50.1016 33.571L49.9919 33.6478Z" fill="#5A5D72"/>
<path d="M201.96 60.5006C202.099 59.7182 202.352 58.9369 202.583 58.171L201.814 60.5707C202.447 58.7059 203.297 56.9218 204.346 55.2552L203.002 57.3229C204.083 55.7034 205.345 54.2121 206.763 52.8776L204.982 54.4839C206.323 53.3001 207.793 52.2711 209.363 51.4161L207.245 52.5402C208.309 51.965 209.439 51.5196 210.609 51.2135L208.21 51.7502C209.028 51.5885 209.859 51.5038 210.693 51.4973L208.158 51.3952C209.086 51.4435 210.005 51.6059 210.894 51.8787L208.478 51.1059C209.361 51.4233 210.208 51.8307 211.008 52.3214L208.961 50.9799C210.021 51.6767 210.998 52.4939 211.871 53.4152L210.266 51.6332C211.229 52.7509 212.063 53.9744 212.751 55.2803L211.628 53.1609C213.054 56.2681 214.101 59.5362 214.746 62.8943L214.21 60.4944L214.314 60.993C214.633 63.4297 215.799 65.6761 217.608 67.3381C219.518 68.9618 221.995 69.7597 224.493 69.5564C226.992 69.353 229.308 68.165 230.931 66.2537C231.765 65.2993 232.393 64.1829 232.775 62.9743C233.157 61.7658 233.285 60.4913 233.151 59.2309C231.812 53.2312 230.501 47.3903 226.943 42.324C224.929 39.3336 222.21 36.886 219.026 35.1975C215.842 33.5091 212.291 32.632 208.687 32.6437C202.084 32.7448 196.007 36.9345 191.536 41.4849C187.426 45.841 184.614 51.2588 183.416 57.1278C182.98 59.598 183.542 62.1405 184.979 64.1957C186.416 66.2509 188.61 67.6505 191.079 68.0868C193.541 68.4775 196.06 67.8964 198.103 66.4657C200.147 65.035 201.556 62.8666 202.033 60.4173L201.96 60.5006Z" fill="#5A5D72"/>
<path d="M228.831 60.427L41.4725 27.3207C30.6664 25.4112 20.3574 32.6289 18.4468 43.4418L4.31907 123.395C2.40843 134.208 9.61964 144.521 20.4258 146.431L207.785 179.537C218.591 181.447 228.9 174.229 230.81 163.416L244.938 83.4628C246.849 72.6499 239.638 62.3364 228.831 60.427Z" fill="#E2E0EC"/>
<path d="M173.119 123.331C173.053 118.968 171.818 114.703 169.542 110.981C166.649 106.334 162.306 102.771 157.184 100.844C162.217 101.523 167.32 100.272 171.47 97.3425C175.62 94.4129 178.509 90.0215 179.557 85.0497C178.868 90.1682 180.106 95.3598 183.03 99.6151C185.954 103.87 190.355 106.885 195.378 108.073C189.747 108.065 184.289 110.022 179.944 113.607C176.882 116.217 174.534 119.563 173.119 123.331Z" fill="#A0A09F"/>
<path d="M194.681 155.802C191.079 156.864 187.277 157.06 183.586 156.374C179.894 155.689 176.416 154.141 173.435 151.856C170.789 149.71 168.645 147.01 167.154 143.946C165.895 141.399 165.74 137.933 163.846 135.831C161.694 133.338 158.297 132.142 155.96 129.827C154.61 128.459 153.462 126.904 152.552 125.21C150.708 121.987 149.614 118.39 149.351 114.685C149.089 110.98 149.664 107.263 151.035 103.811C152.072 101.094 156.456 100.62 157.327 101.561C157.794 102.066 157.218 102.829 156.806 104.504C156.309 107.317 157.218 108.15 158.834 115.736C159.019 116.635 159.28 117.517 159.616 118.371C160.035 119.422 160.566 120.424 161.2 121.36C161.546 121.901 161.976 122.4 162.341 122.944C162.705 123.489 162.03 122.639 162.015 122.618C162.218 123.095 163.244 123.699 163.689 124.008C166.391 125.709 168.904 127.692 171.186 129.924C173.053 132.536 174.403 135.48 175.163 138.599C175.342 139.111 175.539 139.626 175.773 140.148C176.007 140.669 175.94 140.504 175.669 139.976C175.815 140.232 175.947 140.467 176.115 140.708C176.576 141.472 177.088 142.204 177.648 142.9C179.605 145.17 182.285 146.695 185.236 147.218C186.588 147.444 187.964 147.48 189.325 147.326C189.851 147.284 190.365 147.202 190.878 147.12L191.713 146.96C191.112 147.104 191.034 147.109 191.489 146.921C192.668 146.526 193.952 146.596 195.08 147.117C196.208 147.637 197.096 148.569 197.56 149.722C197.976 150.911 197.907 152.216 197.369 153.354C196.83 154.492 195.864 155.372 194.681 155.802Z" fill="#A0A09F"/>
<path d="M204.709 116.542C202.657 113.12 201.729 109.14 202.055 105.161C202.099 100.668 200.971 96.2404 198.781 92.3173C196.591 88.3941 193.415 85.1111 189.568 82.7927C185.721 80.4743 181.335 79.2008 176.845 79.0982C172.355 78.9955 167.916 80.0673 163.966 82.2074C160.016 84.3476 156.692 87.4821 154.324 91.301C151.956 95.1199 150.624 99.491 150.461 103.982C150.298 108.473 151.31 112.929 153.396 116.909C155.481 120.888 158.569 124.254 162.354 126.673C165.071 128.094 167.348 130.23 168.941 132.851C169.875 134.417 170.533 136.132 170.887 137.92C171.533 141.376 173.014 144.622 175.202 147.373C177.389 150.124 180.217 152.298 183.437 153.704C186.657 155.11 190.173 155.706 193.677 155.44C197.181 155.174 200.567 154.054 203.539 152.178C206.512 150.302 208.98 147.727 210.729 144.677C212.478 141.627 213.455 138.195 213.574 134.681C213.693 131.167 212.951 127.678 211.412 124.517C209.874 121.356 207.585 118.62 204.747 116.548L204.709 116.542ZM173.072 122.727C169.416 122.062 166.039 120.328 163.367 117.744C160.694 115.161 158.847 111.842 158.058 108.209C157.269 104.575 157.574 100.789 158.933 97.3275C160.293 93.8663 162.646 90.8853 165.697 88.7608C168.747 86.6363 172.358 85.4635 176.074 85.3903C179.79 85.3171 183.444 86.3468 186.575 88.3495C189.706 90.3522 192.173 93.2382 193.667 96.6432C195.16 100.048 195.611 103.82 194.964 107.482C194.07 112.402 191.264 116.767 187.162 119.624C183.059 122.481 177.994 123.597 173.072 122.727Z" fill="#5A5D72"/>
<path d="M72.3282 105.521C72.2618 101.158 71.0265 96.8932 68.7511 93.1711C65.8583 88.5242 61.5149 84.9615 56.3933 83.0346C61.4258 83.7132 66.529 82.4623 70.6787 79.5327C74.8284 76.6031 77.7174 72.2117 78.7661 67.2399C78.077 72.3584 79.3149 77.55 82.2389 81.8053C85.1629 86.0606 89.5641 89.0754 94.5869 90.2636C88.9511 90.2563 83.4881 92.2114 79.1347 95.7935C76.076 98.4043 73.7333 101.752 72.3282 105.521Z" fill="#A0A09F"/>
<path d="M38.6915 128.239C41.7118 130.471 45.2162 131.958 48.9194 132.579C52.6227 133.2 56.4203 132.937 60.0034 131.813C63.2221 130.698 66.1604 128.897 68.6154 126.534C70.6705 124.573 71.9857 121.367 74.4853 120.041C77.3607 118.436 80.9627 118.477 83.9694 117.107C85.7047 116.289 87.3101 115.219 88.7343 113.934C91.8651 111.255 94.2978 107.854 95.8223 104.025C97.1836 100.558 98.5459 97.629 97.5208 94.4127C96.8272 92.2539 95.1632 90.1541 94.3833 90.4389C93.6035 90.7238 94.5065 92.132 93.9111 94.1975C92.7292 98.3878 87.1299 101.068 85.9673 102.975C85.9475 103.087 85.5377 103.668 84.9647 104.412C84.7685 104.681 84.5563 104.939 84.3292 105.183C83.6005 105.994 82.7892 106.726 81.9083 107.368C81.3792 107.755 80.8042 108.076 80.2937 108.466C79.7832 108.856 80.6901 108.286 80.6934 108.267C80.357 108.65 79.1862 108.865 78.6441 109C75.53 109.677 72.4959 110.679 69.5917 111.992C66.9382 113.799 64.6599 116.104 62.8826 118.779C62.5397 119.198 62.1594 119.611 61.7792 120.024C61.3991 120.437 61.5 120.302 61.936 119.898L61.2655 120.433C60.5705 120.993 59.8386 121.506 59.0746 121.967C56.4557 123.423 53.4175 123.937 50.4662 123.423C49.1189 123.174 47.8133 122.736 46.5875 122.123C46.1079 121.904 45.6534 121.651 45.199 121.398L44.4513 120.958C44.9856 121.302 45.0568 121.334 44.6933 121.001C43.7216 120.226 42.4911 119.852 41.2528 119.955C40.0145 120.057 38.8618 120.629 38.0301 121.552C37.6343 122.035 37.3374 122.591 37.1564 123.188C36.9754 123.785 36.9139 124.412 36.9754 125.033C37.0368 125.654 37.22 126.257 37.5145 126.807C37.8089 127.357 38.2089 127.844 38.6915 128.239Z" fill="#A0A09F"/>
<path d="M79.2358 61.5406C73.2203 60.4799 67.0234 61.5888 61.7473 64.67C56.4712 67.7513 52.458 72.605 50.4218 78.3679C50.0242 79.8226 49.4542 81.2245 48.724 82.5439C47.5341 84.693 45.947 86.5964 44.047 88.1528C40.6766 89.1284 37.5953 90.914 35.0722 93.3539C32.5491 95.7937 30.6606 98.8139 29.571 102.151C28.4815 105.488 28.224 109.041 28.8212 112.501C29.4184 115.96 30.852 119.22 32.9972 121.998C35.1423 124.775 37.9339 126.985 41.1286 128.436C44.3233 129.886 47.8243 130.533 51.3263 130.319C54.8284 130.106 58.2252 129.038 61.2209 127.21C64.2166 125.382 66.7201 122.849 68.5134 119.831C69.7868 117.747 71.5141 115.977 73.5663 114.653C75.6185 113.329 77.9428 112.486 80.3658 112.186C86.1984 110.893 91.4024 107.615 95.0901 102.911C98.7777 98.2079 100.72 92.3703 100.587 86.3945C100.454 80.4186 98.2525 74.6746 94.3588 70.1421C90.4651 65.6097 85.1203 62.5697 79.2358 61.5406ZM72.2815 104.918C68.6178 104.27 65.2285 102.55 62.5422 99.9753C59.8559 97.4004 57.9932 94.086 57.1896 90.4514C56.3861 86.8168 56.6776 83.0252 58.0277 79.556C59.3777 76.0868 61.7256 73.0958 64.7742 70.9614C67.8229 68.8269 71.4355 67.6449 75.1551 67.5646C78.8747 67.4843 82.5342 68.5095 85.6711 70.5104C88.8079 72.5114 91.2812 75.3984 92.778 78.8061C94.2748 82.2139 94.728 85.9895 94.0802 89.6554C93.1884 94.5594 90.3984 98.9135 86.3166 101.771C82.2347 104.629 77.191 105.76 72.2815 104.918Z" fill="#5A5D72"/>
<path d="M36.5657 55.3072C41.1822 56.1229 45.5863 53.0394 46.4025 48.42C47.2188 43.8006 44.1381 39.3946 39.5216 38.5788C34.9051 37.7631 30.501 40.8466 29.6847 45.466C28.8685 50.0854 31.9492 54.4914 36.5657 55.3072Z" fill="#A0A09F"/>
<path d="M36.8619 53.6306C40.5531 54.2828 44.0744 51.8174 44.7271 48.1239C45.3797 44.4305 42.9165 40.9076 39.2253 40.2554C35.5342 39.6031 32.0129 42.0685 31.3602 45.762C30.7076 49.4555 33.1708 52.9783 36.8619 53.6306Z" fill="#A9A9A9"/>
<path d="M45.242 47.2736L31.1678 44.7867L30.7892 46.929L44.8635 49.4159L45.242 47.2736Z" fill="#A0A09F"/>
<path d="M34.3559 44.2359C34.3263 44.4035 34.4885 44.0288 34.3559 44.2359L34.5039 44.0507C34.6191 43.8893 34.7486 43.7386 34.8907 43.6004C34.896 43.5502 34.9048 43.5003 34.9171 43.4514L34.9335 43.3582L35.0901 43.2322L35.4407 42.9868L35.6345 42.8674C35.9129 42.7341 36.2021 42.6246 36.4988 42.5398L36.629 42.5628L37.0245 42.4982L37.6838 42.4611C37.7768 42.4775 37.8699 42.494 37.6838 42.4611L38.0001 42.517C38.221 42.5466 38.4449 42.492 38.6275 42.3641C38.8101 42.2363 38.9382 42.0445 38.9861 41.8267C39.0254 41.6044 38.9748 41.3756 38.8454 41.1906C38.7161 41.0056 38.5185 40.8797 38.2963 40.8404C37.1423 40.7011 35.9727 40.9016 34.9308 41.4175C33.911 41.9342 33.0584 42.7293 32.4715 43.7108C32.4219 43.8105 32.3926 43.9191 32.3857 44.0303C32.3789 44.1414 32.3945 44.2529 32.4314 44.3579C32.4684 44.463 32.5259 44.5595 32.6009 44.6418C32.6758 44.7242 32.7664 44.7907 32.8675 44.8373C33.0702 44.9274 33.2997 44.9365 33.5091 44.8628C33.7184 44.7891 33.8918 44.6381 33.9935 44.4408L34.3559 44.2359Z" fill="#B5B5B5"/>
<path d="M223.908 86.9889C228.524 87.8046 232.928 84.7211 233.744 80.1017C234.561 75.4823 231.48 71.0763 226.863 70.2606C222.247 69.4448 217.843 72.5283 217.027 77.1477C216.21 81.7671 219.291 86.1732 223.908 86.9889Z" fill="#A0A09F"/>
<path d="M224.204 85.3123C227.895 85.9646 231.416 83.4991 232.069 79.8057C232.722 76.1122 230.258 72.5893 226.567 71.9371C222.876 71.2849 219.355 73.7503 218.702 77.4438C218.049 81.1372 220.513 84.6601 224.204 85.3123Z" fill="#A9A9A9"/>
<path d="M230.263 83.9842L222.259 72.1374L220.458 73.3559L228.461 85.2027L230.263 83.9842Z" fill="#A0A09F"/>
<path d="M224.768 74.0782C224.582 74.0453 224.989 74.0212 224.768 74.0782L225.01 74.1209L225.595 74.0705L225.874 74.1199C225.763 74.1001 225.874 74.1199 225.967 74.1363L226.898 74.3008C227.192 74.3908 227.472 74.5179 227.734 74.679L227.883 74.7053L228.207 74.9355C228.379 75.0762 228.538 75.2329 228.681 75.4034C228.681 75.4034 228.77 75.5536 228.681 75.4034C228.733 75.4468 228.776 75.5001 228.807 75.5602C228.942 75.7393 229.14 75.8606 229.361 75.8997C229.582 75.9387 229.81 75.8927 229.998 75.7707C230.174 75.6326 230.292 75.4347 230.331 75.2148C230.37 74.9948 230.326 74.7683 230.209 74.5784C229.496 73.6539 228.535 72.9512 227.438 72.552C226.358 72.1918 225.2 72.1333 224.089 72.3828C223.875 72.4547 223.699 72.6086 223.598 72.8105C223.498 73.0125 223.481 73.246 223.553 73.4599C223.629 73.6708 223.783 73.8443 223.983 73.9441C224.184 74.044 224.415 74.0625 224.629 73.996L224.768 74.0782Z" fill="#B5B5B5"/>
<path d="M94.4765 130.22C95.9467 134.945 98.6883 139.174 102.401 142.442C106.114 145.711 110.655 147.893 115.526 148.751C120.41 149.468 125.398 148.804 129.926 146.834C134.454 144.864 138.341 141.667 141.148 137.603C141.927 136.632 142.303 135.4 142.201 134.159C142.099 132.919 141.525 131.765 140.598 130.936C139.638 130.134 138.4 129.742 137.154 129.846C135.907 129.949 134.751 130.539 133.935 131.487C132.232 134.328 129.725 136.6 126.732 138.015C123.738 139.43 120.392 139.925 117.118 139.437C113.844 138.949 110.788 137.5 108.337 135.273C105.887 133.047 104.152 130.142 103.352 126.928C102.916 125.751 102.03 124.795 100.889 124.271C99.7489 123.747 98.4468 123.698 97.2699 124.135C96.093 124.571 95.1377 125.457 94.6138 126.599C94.0899 127.74 94.0405 129.043 94.4765 130.22Z" fill="#A9A9A9"/>
<path d="M95.7654 126.836C96.8844 131.529 99.3498 135.791 102.858 139.099C106.367 142.407 110.766 144.616 115.513 145.455C120.261 146.294 125.15 145.726 129.58 143.82C134.01 141.915 137.786 138.756 140.446 134.731C141.026 134 141.306 133.073 141.228 132.142C141.15 131.211 140.72 130.345 140.026 129.72C139.307 129.121 138.382 128.828 137.45 128.904C136.517 128.98 135.652 129.419 135.039 130.126C133.183 133.179 130.449 135.601 127.195 137.074C123.941 138.547 120.318 139.002 116.801 138.381C113.285 137.759 110.038 136.09 107.485 133.591C104.933 131.092 103.194 127.88 102.497 124.376C102.164 123.497 101.499 122.784 100.645 122.392C99.7904 122 98.8163 121.961 97.9331 122.283C97.0682 122.628 96.369 123.293 95.98 124.139C95.5911 124.986 95.5419 125.949 95.8431 126.831L95.7654 126.836Z" fill="#5A5D72"/>
<g opacity="0.54">
<path d="M172.139 106.714C174.748 105.887 177.041 104.282 178.712 102.112C179.135 101.605 179.341 100.951 179.283 100.292C179.223 99.6842 178.93 99.1231 178.465 98.7264C178.231 98.5207 177.957 98.3644 177.661 98.2667C177.365 98.1689 177.052 98.1318 176.741 98.1575C176.43 98.1833 176.128 98.2713 175.852 98.4164C175.576 98.5615 175.331 98.7607 175.134 99.0021C174.724 99.5228 174.273 100.008 173.783 100.454L174.237 100.054C173.526 100.702 172.731 101.253 171.875 101.692L172.403 101.42C171.819 101.727 171.209 101.979 170.58 102.174C170.005 102.395 169.537 102.828 169.272 103.384C169.122 103.676 169.036 103.996 169.017 104.324C168.999 104.651 169.05 104.979 169.166 105.286C169.395 105.865 169.838 106.334 170.403 106.595C170.969 106.856 171.613 106.889 172.202 106.687L172.139 106.714Z" fill="#EFEFEF"/>
</g>
<g opacity="0.54">
<path d="M71.2836 88.1822C74.0762 87.3117 76.5059 85.5475 78.1991 83.1609C78.6105 82.6471 78.8143 81.9976 78.7703 81.3408C78.7294 80.875 78.5514 80.4318 78.2588 80.0672C77.9662 79.7027 77.5721 79.4332 77.1264 79.2927C76.6807 79.1523 76.2034 79.1472 75.7547 79.2782C75.3061 79.4092 74.9061 79.6704 74.6057 80.0287C74.1203 80.7239 73.5629 81.3659 72.9428 81.944L73.3787 81.5407C72.7056 82.1635 71.9653 82.7092 71.1714 83.1677L71.7026 82.8775C71.0811 83.2093 70.429 83.4801 69.7553 83.6859C69.1701 83.9069 68.6952 84.3494 68.4331 84.9177C68.1711 85.486 68.1427 86.1345 68.3545 86.7234C68.5716 87.3039 69.0031 87.7788 69.5598 88.0505C70.1614 88.3169 70.841 88.3479 71.4643 88.1373L71.2836 88.1822Z" fill="#EFEFEF"/>
</g>
</g>
<defs>
<clipPath id="clip0_407_2778">
<rect width="230" height="145.093" fill="white" transform="translate(26.1064 0.0934448) rotate(10.0207)"/>
</clipPath>
</defs>
</svg>
