<svg width="20" height="19" viewBox="0 0 20 19" fill="none" xmlns="http://www.w3.org/2000/svg">
<path d="M13.7222 18.5847C13.3519 18.7328 13.0093 18.6865 12.6944 18.4458C12.3796 18.205 12.2222 17.8717 12.2222 17.4458C12.2222 17.2421 12.2826 17.0617 12.4033 16.9047C12.5233 16.7469 12.6759 16.631 12.8611 16.5569C14.3426 15.9643 15.5326 15.0198 16.4311 13.7235C17.3289 12.4272 17.7778 10.9643 17.7778 9.33466C17.7778 7.70503 17.3289 6.24206 16.4311 4.94577C15.5326 3.64947 14.3426 2.70503 12.8611 2.11243C12.6574 2.03836 12.5 1.91799 12.3889 1.75132C12.2778 1.58466 12.2222 1.39947 12.2222 1.19577C12.2222 0.78836 12.3796 0.464286 12.6944 0.223545C13.0093 -0.0171958 13.3519 -0.0634921 13.7222 0.0846561C15.6111 0.843915 17.1296 2.05688 18.2778 3.72355C19.4259 5.39021 20 7.26058 20 9.33466C20 11.4087 19.4259 13.2791 18.2778 14.9458C17.1296 16.6124 15.6111 17.8254 13.7222 18.5847ZM1.11111 12.6958C0.796296 12.6958 0.532593 12.5891 0.32 12.3758C0.106667 12.1632 0 11.8995 0 11.5847V7.14021C0 6.8254 0.106667 6.56132 0.32 6.34799C0.532593 6.1354 0.796296 6.0291 1.11111 6.0291H4.44444L8.11111 2.36243C8.46296 2.01058 8.86556 1.93169 9.31889 2.12577C9.77296 2.32058 10 2.66799 10 3.16799V15.5569C10 16.0569 9.77296 16.4039 9.31889 16.598C8.86556 16.7928 8.46296 16.7143 8.11111 16.3624L4.44444 12.6958H1.11111ZM12.2222 13.8069V4.86243C13.0556 5.25132 13.7267 5.85317 14.2356 6.66799C14.7452 7.4828 15 8.38095 15 9.36243C15 10.3439 14.7452 11.2328 14.2356 12.0291C13.7267 12.8254 13.0556 13.418 12.2222 13.8069Z" fill="#9B9BA4"/>
</svg>
